<svg xmlns="http://www.w3.org/2000/svg" version="1.1" xmlns:xlink="http://www.w3.org/1999/xlink" xmlns:svgjs="http://svgjs.dev/svgjs" width="1920" height="1080" preserveAspectRatio="none" viewBox="0 0 1920 1080"><g mask="url(&quot;#SvgjsMask1082&quot;)" fill="none"><rect width="1920" height="1080" x="0" y="0" fill="url(&quot;#SvgjsLinearGradient1083&quot;)"></rect><path d="M6 1080L1086 0L1297.5 0L217.5 1080z" fill="url(&quot;#SvgjsLinearGradient1084&quot;)"></path><path d="M698.6 1080L1778.6 0L2606.6 0L1526.6 1080z" fill="url(&quot;#SvgjsLinearGradient1084&quot;)"></path><path d="M1805 1080L725 0L548 0L1628 1080z" fill="url(&quot;#SvgjsLinearGradient1085&quot;)"></path><path d="M1270.4 1080L190.4000000000001 0L-57.09999999999991 0L1022.9000000000001 1080z" fill="url(&quot;#SvgjsLinearGradient1085&quot;)"></path><path d="M1263.6791168676443 1080L1920 423.6791168676443L1920 1080z" fill="url(&quot;#SvgjsLinearGradient1084&quot;)"></path><path d="M0 1080L656.3208831323557 1080L 0 423.6791168676443z" fill="url(&quot;#SvgjsLinearGradient1085&quot;)"></path></g><defs><mask id="SvgjsMask1082"><rect width="1920" height="1080" fill="#ffffff"></rect></mask><linearGradient x1="89.06%" y1="119.44%" x2="10.94%" y2="-19.44%" gradientUnits="userSpaceOnUse" id="SvgjsLinearGradient1083"><stop stop-color="#0e2a47" offset="0"></stop><stop stop-color="#00459e" offset="1"></stop></linearGradient><linearGradient x1="0%" y1="100%" x2="100%" y2="0%" id="SvgjsLinearGradient1084"><stop stop-color="rgba(24, 25, 43, 1)" offset="0"></stop><stop stop-opacity="0" stop-color="rgba(24, 25, 43, 1)" offset="0.66"></stop></linearGradient><linearGradient x1="100%" y1="100%" x2="0%" y2="0%" id="SvgjsLinearGradient1085"><stop stop-color="rgba(24, 25, 43, 1)" offset="0"></stop><stop stop-opacity="0" stop-color="rgba(24, 25, 43, 1)" offset="0.66"></stop></linearGradient></defs></svg>